<?xml version="1.0" encoding="UTF-8"?>
<!DOCTYPE svg PUBLIC "-//W3C//DTD SVG 1.1//EN" "http://www.w3.org/Graphics/SVG/1.1/DTD/svg11.dtd">
<svg xmlns="http://www.w3.org/2000/svg" version="1.1" width="935px" height="258px" style="shape-rendering:geometricPrecision; text-rendering:geometricPrecision; image-rendering:optimizeQuality; fill-rule:evenodd; clip-rule:evenodd" xmlns:xlink="http://www.w3.org/1999/xlink">
<g><path style="opacity:0.77" fill="#fdfefc" d="M 863.5,-0.5 C 864.5,-0.5 865.5,-0.5 866.5,-0.5C 873.444,7.04595 878.611,15.7126 882,25.5C 882.333,30.5 882.667,35.5 883,40.5C 888.931,37.4687 895.097,35.1354 901.5,33.5C 901.494,36.8502 900.494,39.8502 898.5,42.5C 885.83,48.272 873.497,54.6053 861.5,61.5C 860.177,58.0867 860.344,54.7533 862,51.5C 867.26,48.1189 872.76,45.1189 878.5,42.5C 879.461,36.6459 878.627,30.9792 876,25.5C 872.157,19.1466 867.823,13.1466 863,7.5C 862.57,4.80776 862.737,2.14109 863.5,-0.5 Z"/></g>
<g><path style="opacity:0.854" fill="#fdfefc" d="M 841.5,0.5 C 843.124,0.360072 844.29,1.02674 845,2.5C 850.651,21.4229 853.984,40.7562 855,60.5C 857.434,88.6361 857.934,116.803 856.5,145C 857.099,157.162 857.599,169.329 858,181.5C 861.371,193.541 869.205,197.708 881.5,194C 884.196,193.31 886.363,191.81 888,189.5C 886.751,182.103 883.751,175.437 879,169.5C 878.333,166.5 878.333,163.5 879,160.5C 880.145,157.568 880.978,154.568 881.5,151.5C 882.873,151.343 884.207,151.51 885.5,152C 899.293,169.85 900.127,188.35 888,207.5C 880.789,215.209 872.289,217.042 862.5,213C 854.891,208.637 850.058,202.137 848,193.5C 846.234,182.574 845.401,171.574 845.5,160.5C 847.531,120.529 846.031,80.8627 841,41.5C 839.488,33.4298 837.655,25.4298 835.5,17.5C 837.111,11.6642 839.111,5.99754 841.5,0.5 Z"/></g>
<g><path style="opacity:0.847" fill="#fdfefc" d="M 934.5,138.5 C 934.5,154.5 934.5,170.5 934.5,186.5C 931.288,193.333 929.288,200.666 928.5,208.5C 927.5,208.5 926.5,208.5 925.5,208.5C 922.706,147.38 918.206,86.38 912,25.5C 911.066,22.8638 910.232,20.1971 909.5,17.5C 911.113,12.2719 913.28,7.27186 916,2.5C 917,1.16667 918,1.16667 919,2.5C 923.865,17.0083 928.032,31.675 931.5,46.5C 929.019,46.6766 927.186,45.6766 926,43.5C 928.692,75.4913 931.525,107.158 934.5,138.5 Z"/></g>
<g><path style="opacity:0.822" fill="#fdfefc" d="M 821.5,2.5 C 822.497,2.47008 823.164,2.97008 823.5,4C 822.919,7.6851 821.585,11.0184 819.5,14C 777.357,26.9104 737.024,43.9104 698.5,65C 697.446,66.3876 697.28,67.8876 698,69.5C 702.97,72.4749 707.304,76.1415 711,80.5C 711.944,83.3471 711.444,85.8471 709.5,88C 703.246,84.7562 697.412,80.5895 692,75.5C 691.048,69.6385 691.715,63.9718 694,58.5C 714.196,46.8184 735.03,36.3184 756.5,27C 778.362,18.9672 800.029,10.8005 821.5,2.5 Z"/></g>
<g><path style="opacity:0.787" fill="#fdfefc" d="M 330.5,3.5 C 333.317,3.80052 333.984,5.13385 332.5,7.5C 339.006,11.8233 343.34,17.6566 345.5,25C 344.182,33.4809 339.182,37.9809 330.5,38.5C 325.001,37.1667 322.334,33.6667 322.5,28C 323.913,19.3603 326.58,11.1936 330.5,3.5 Z M 329.5,17.5 C 333.254,19.7476 336.588,22.581 339.5,26C 334.258,29.9207 329.925,29.254 326.5,24C 327.406,21.7787 328.406,19.6121 329.5,17.5 Z"/></g>
<g><path style="opacity:0.853" fill="#fdfefc" d="M 505.5,3.5 C 507.934,4.77128 509.434,6.77128 510,9.5C 512.731,20.6911 516.064,31.6911 520,42.5C 520.497,45.146 520.664,47.8127 520.5,50.5C 518.089,50.8633 516.589,49.8633 516,47.5C 516.512,64.4567 518.012,81.6233 520.5,99C 520.355,99.772 520.022,100.439 519.5,101C 521.846,124.06 523.513,147.227 524.5,170.5C 524.256,180.94 523.089,191.273 521,201.5C 520.275,203.949 519.275,206.283 518,208.5C 516.989,209.337 515.822,209.67 514.5,209.5C 514.862,188.544 513.862,167.711 511.5,147C 508.71,109.693 505.544,72.193 502,34.5C 500.935,29.8046 499.768,25.1379 498.5,20.5C 500.008,14.4858 502.341,8.81911 505.5,3.5 Z"/></g>
<g><path style="opacity:0.867" fill="#fdfefc" d="M 542.5,3.5 C 543.496,3.41423 544.329,3.74756 545,4.5C 549.071,14.4515 551.738,24.7848 553,35.5C 557.686,76.6992 559.686,118.033 559,159.5C 561.529,177.265 570.529,181.598 586,172.5C 586.325,170.447 585.991,168.447 585,166.5C 581.833,160.833 578.667,155.167 575.5,149.5C 576.71,144.111 578.043,138.778 579.5,133.5C 580.552,133.351 581.552,133.517 582.5,134C 596.817,149.745 599.317,167.245 590,186.5C 581.64,197.203 571.473,199.536 559.5,193.5C 552.164,186.823 548.664,178.49 549,168.5C 548.794,125.337 546.128,82.3374 541,39.5C 539.497,32.8228 537.997,26.1561 536.5,19.5C 537.38,13.741 539.38,8.40772 542.5,3.5 Z"/></g>
<g><path style="opacity:0.851" fill="#fdfefc" d="M 602.5,3.5 C 603.822,3.33003 604.989,3.66337 606,4.5C 610.333,17.5 614.667,30.5 619,43.5C 619.497,45.8098 619.663,48.1432 619.5,50.5C 616.358,50.2007 614.191,48.5341 613,45.5C 615.253,70.2162 617.253,95.2162 619,120.5C 620.351,138.149 620.685,155.816 620,173.5C 619.097,180.684 617.43,187.684 615,194.5C 614.29,195.973 613.124,196.64 611.5,196.5C 611.512,181.484 611.012,166.484 610,151.5C 606.562,110.282 603.228,69.282 600,28.5C 598.617,25.3442 597.45,22.1776 596.5,19C 597.624,13.455 599.624,8.28829 602.5,3.5 Z"/></g>
<g><path style="opacity:0.891" fill="#fdfefc" d="M 274.5,257.5 C 272.5,257.5 270.5,257.5 268.5,257.5C 263.907,250.473 263.24,242.973 266.5,235C 245.987,237.146 225.654,240.646 205.5,245.5C 204.5,245.167 203.833,244.5 203.5,243.5C 205.607,240.939 208.274,239.106 211.5,238C 232.385,230.89 253.052,223.223 273.5,215C 280.928,212.085 287.928,208.418 294.5,204C 295.191,202.933 295.691,201.766 296,200.5C 296.82,189.257 296.653,178.09 295.5,167C 288.137,166.463 280.804,166.797 273.5,168C 251.564,174.201 229.897,181.201 208.5,189C 195.835,193.674 183.502,192.674 171.5,186C 164.927,179.807 158.094,173.973 151,168.5C 141.076,172.88 131.243,177.38 121.5,182C 119.864,194.273 114.531,204.606 105.5,213C 89.4969,227.507 71.1636,238.174 50.5,245C 21.5546,252.052 6.22125,240.719 4.5,211C 4.6183,201.385 6.28496,192.051 9.5,183C 5.29405,176.523 1.96072,169.69 -0.5,162.5C -0.5,154.833 -0.5,147.167 -0.5,139.5C 2.09035,129.663 5.09035,119.83 8.5,110C 4.61945,103.836 1.61945,97.3364 -0.5,90.5C -0.5,84.1667 -0.5,77.8333 -0.5,71.5C 2.5881,57.7478 7.75477,44.7478 15,32.5C 16.0113,31.6634 17.1779,31.33 18.5,31.5C 16.3004,38.9072 13.8004,46.2406 11,53.5C 3.13239,79.267 11.6324,97.4336 36.5,108C 40.9213,109.627 45.4213,110.794 50,111.5C 62.5484,111.232 75.3817,109.398 88.5,106C 101.309,101.73 113.976,97.0634 126.5,92C 134.817,88.4967 142.483,83.9967 149.5,78.5C 150.631,76.9255 150.798,75.2588 150,73.5C 144.182,57.7166 139.016,41.8832 134.5,26C 135.657,20.352 137.657,15.0187 140.5,10C 141.449,9.38277 142.282,9.54943 143,10.5C 147.667,19.1667 152.333,27.8333 157,36.5C 157.494,38.1341 157.66,39.8008 157.5,41.5C 155.669,40.9478 154.003,40.9478 152.5,41.5C 155.299,48.3971 157.799,55.3971 160,62.5C 159.709,82.2558 150.876,96.7558 133.5,106C 111.086,117.804 87.4196,125.804 62.5,130C 43.4885,132.662 26.9885,127.495 13,114.5C 6.71471,128.215 6.04805,142.215 11,156.5C 12.1227,159.249 13.6227,161.749 15.5,164C 17.1667,164.667 18.8333,164.667 20.5,164C 22.8793,160.744 24.8793,157.244 26.5,153.5C 27.325,152.614 28.325,152.281 29.5,152.5C 29.1799,163.131 26.0132,172.797 20,181.5C 18.5587,182.87 16.892,183.87 15,184.5C 12.2049,196.553 13.2049,208.22 18,219.5C 22.1386,225.403 27.8053,228.069 35,227.5C 54.5391,225.646 72.3725,219.146 88.5,208C 95.9516,202.883 103.118,197.383 110,191.5C 110.122,189.831 109.788,188.165 109,186.5C 72.999,197.502 63.3323,186.169 80,152.5C 82.2047,149.96 84.7047,147.793 87.5,146C 93.1956,145.672 98.5289,147.006 103.5,150C 109.049,154.048 113.715,158.881 117.5,164.5C 124.313,161.925 130.979,159.091 137.5,156C 130.903,148.605 123.07,146.772 114,150.5C 113.228,150.355 112.561,150.022 112,149.5C 112.13,141.775 114.63,134.942 119.5,129C 145.939,118.881 171.439,120.715 196,134.5C 197.763,131.298 199.763,128.298 202,125.5C 209.073,123.697 216.24,123.197 223.5,124C 237.043,130.63 251.043,136.296 265.5,141C 274.943,144.055 284.61,145.889 294.5,146.5C 291.682,112.671 289.015,78.8381 286.5,45C 286.645,44.228 286.978,43.5613 287.5,43C 286.479,35.2095 284.812,27.5428 282.5,20C 283.306,13.8905 285.806,8.72379 290,4.5C 290.772,4.6448 291.439,4.97814 292,5.5C 298.144,19.7647 302.977,34.4314 306.5,49.5C 306.641,53.8312 305.308,54.4978 302.5,51.5C 300.386,45.1662 299.386,45.1662 299.5,51.5C 302.859,84.3397 305.526,117.006 307.5,149.5C 312.536,149.588 317.536,150.088 322.5,151C 324.861,151.197 326.528,152.364 327.5,154.5C 324.377,158.578 321.377,162.745 318.5,167C 317.127,167.875 315.627,168.375 314,168.5C 311.538,167.841 309.038,167.507 306.5,167.5C 306.33,172.859 305.83,178.192 305,183.5C 303.425,189.2 302.092,194.866 301,200.5C 315.843,192.157 329.343,181.99 341.5,170C 335.262,156.355 329.428,142.521 324,128.5C 323,127.5 322,126.5 321,125.5C 320.542,118.607 322.042,112.274 325.5,106.5C 333.313,114.309 339.979,122.976 345.5,132.5C 343.312,133.241 341.312,133.574 339.5,133.5C 344.863,142.635 348.197,152.135 349.5,162C 349.271,175.79 343.937,187.123 333.5,196C 327.641,200.692 321.641,205.192 315.5,209.5C 313.431,221.036 318.098,228.036 329.5,230.5C 332.214,230.06 334.38,228.726 336,226.5C 340.947,214.996 346.28,203.663 352,192.5C 357.728,184.099 365.228,177.932 374.5,174C 377.167,173.333 379.833,173.333 382.5,174C 385.164,180.492 388.497,186.658 392.5,192.5C 402.72,204.07 414.387,205.57 427.5,197C 432.046,192.123 436.213,186.956 440,181.5C 441.753,180.373 443.587,179.373 445.5,178.5C 446.881,179 447.547,180 447.5,181.5C 445.032,188.295 446.698,193.795 452.5,198C 470.058,201.897 477.058,195.064 473.5,177.5C 473.352,166.484 472.852,155.484 472,144.5C 468.639,107.62 465.305,70.9538 462,34.5C 461.887,29.832 460.72,25.4987 458.5,21.5C 459.993,16.1828 462.159,11.1828 465,6.5C 466.333,5.16667 467.667,5.16667 469,6.5C 473,18.5 477,30.5 481,42.5C 481.497,45.146 481.664,47.8127 481.5,50.5C 478.358,50.2007 476.191,48.5341 475,45.5C 476.851,64.4042 478.851,83.0709 481,101.5C 481.559,115.199 482.559,128.866 484,142.5C 485.543,161.723 484.21,180.723 480,199.5C 476.776,215.361 467.276,221.527 451.5,218C 443.437,214.048 439.27,207.548 439,198.5C 435.625,204.085 432.125,209.585 428.5,215C 413.237,225.631 399.404,223.798 387,209.5C 383.679,204.526 381.179,199.193 379.5,193.5C 370.418,193.292 363.251,196.958 358,204.5C 355.497,207.502 353.497,210.835 352,214.5C 349,223.5 346,232.5 343,241.5C 337.966,251.178 330.799,253.011 321.5,247C 316.147,243.138 312.647,237.972 311,231.5C 309.274,225.963 308.274,220.296 308,214.5C 296.237,222.715 283.571,229.048 270,233.5C 269.262,235.953 268.762,238.453 268.5,241C 268.586,245.749 270.92,247.415 275.5,246C 276.402,243.798 277.402,241.632 278.5,239.5C 279.881,240 280.547,241 280.5,242.5C 279.541,248.093 277.541,253.093 274.5,257.5 Z M 329.5,17.5 C 328.406,19.6121 327.406,21.7787 326.5,24C 329.925,29.254 334.258,29.9207 339.5,26C 336.588,22.581 333.254,19.7476 329.5,17.5 Z M 215.5,22.5 C 217.144,22.2865 218.644,22.6198 220,23.5C 221.665,26.5128 222.832,29.6795 223.5,33C 219.143,32.0402 215.143,30.0402 211.5,27C 213.041,25.6288 214.375,24.1288 215.5,22.5 Z M 260.5,55.5 C 267.377,58.0482 267.043,58.8816 259.5,58C 260.252,57.3292 260.586,56.4959 260.5,55.5 Z M 417.5,70.5 C 422.541,70.3718 425.207,72.8718 425.5,78C 425.507,79.8122 424.84,81.3122 423.5,82.5C 420.056,81.3011 416.889,79.6345 414,77.5C 413.576,74.3478 414.743,72.0144 417.5,70.5 Z M 431.5,77.5 C 433.822,79.494 435.822,81.8273 437.5,84.5C 429.634,86.9724 427.634,84.6391 431.5,77.5 Z M 147.5,141.5 C 153.537,140.667 159.537,141.501 165.5,144C 162.534,145.266 159.534,146.433 156.5,147.5C 153.489,145.484 150.489,143.484 147.5,141.5 Z M 193.5,142.5 C 200.452,143.659 207.452,144.825 214.5,146C 217.798,146.487 220.798,147.653 223.5,149.5C 224.814,148.687 225.981,147.687 227,146.5C 235.578,150.583 244.412,154.083 253.5,157C 234.691,164.6 215.191,169.767 195,172.5C 184.858,171.679 176.358,167.513 169.5,160C 175.71,156.23 182.377,153.563 189.5,152C 191.128,148.948 192.461,145.782 193.5,142.5 Z M 85.5,167.5 C 89.747,167.178 93.747,168.011 97.5,170C 92.8024,171.788 88.1357,171.788 83.5,170C 84.3805,169.292 85.0472,168.458 85.5,167.5 Z"/></g>
<g><path style="opacity:0.767" fill="#fdfefc" d="M 268.5,5.5 C 276.985,6.49334 280.152,11.16 278,19.5C 277.311,20.3567 276.478,21.0233 275.5,21.5C 273.96,19.6132 272.293,17.7799 270.5,16C 269.551,15.3828 268.718,15.5494 268,16.5C 265.948,26.0073 264.114,35.5073 262.5,45C 264.888,45.3034 267.055,46.1367 269,47.5C 270.961,50.4628 273.294,53.1294 276,55.5C 279.136,59.3761 279.302,63.3761 276.5,67.5C 270.439,67.7127 264.439,68.2127 258.5,69C 256.59,69.4083 255.59,70.5749 255.5,72.5C 260.963,86.0555 266.13,99.7222 271,113.5C 273.214,122.016 272.881,130.35 270,138.5C 269.059,130.848 267.726,123.181 266,115.5C 261.138,103.913 256.471,92.2464 252,80.5C 249.999,72.8189 251.833,66.3189 257.5,61C 256.328,60.5814 255.328,59.9147 254.5,59C 256.229,54.8762 258.229,50.8762 260.5,47C 257.226,41.6262 254.059,36.1262 251,30.5C 247.051,28.2901 242.884,26.4568 238.5,25C 236.422,8.73346 240.922,6.5668 252,18.5C 255.172,22.8409 257.839,27.5076 260,32.5C 260.919,26.8156 261.919,21.1489 263,15.5C 264.07,11.6891 265.903,8.35573 268.5,5.5 Z M 260.5,55.5 C 260.586,56.4959 260.252,57.3292 259.5,58C 267.043,58.8816 267.377,58.0482 260.5,55.5 Z"/></g>
<g><path style="opacity:0.825" fill="#fdfefc" d="M 650.5,41.5 C 675.836,28.2801 701.836,16.6135 728.5,6.5C 729.491,11.0227 728.158,14.856 724.5,18C 689.331,31.7282 655.664,48.2282 623.5,67.5C 623.394,65.0176 623.061,62.5176 622.5,60C 623.257,58.4878 624.257,57.1545 625.5,56C 633.896,51.1399 642.23,46.3066 650.5,41.5 Z"/></g>
<g><path style="opacity:0.82" fill="#fdfefc" d="M 411.5,7.5 C 413.948,7.08467 415.281,8.08467 415.5,10.5C 415.167,13.01 414.167,15.1766 412.5,17C 378.687,31.2399 346.02,47.5733 314.5,66C 318.031,68.501 321.198,71.3343 324,74.5C 324.667,76.8333 324.667,79.1667 324,81.5C 323.612,82.428 322.945,83.0946 322,83.5C 317.427,80.9339 313.427,77.6005 310,73.5C 308.619,66.3144 310.453,60.1478 315.5,55C 347.191,38.3209 379.191,22.4875 411.5,7.5 Z"/></g>
<g><path style="opacity:0.731" fill="#fdfefc" d="M 650.5,41.5 C 649.25,41.4226 648.417,40.756 648,39.5C 646.837,34.1719 644.837,29.1719 642,24.5C 638.962,21.7974 636.295,18.7974 634,15.5C 633.105,12.5337 633.605,9.86705 635.5,7.5C 646.549,16.257 651.549,27.5903 650.5,41.5 Z"/></g>
<g><path style="opacity:0.685" fill="#fdfefc" d="M 36.5,10.5 C 37.5,10.5 38.5,10.5 39.5,10.5C 37.7874,16.449 36.6208,22.449 36,28.5C 39.2021,36.6224 41.7021,36.289 43.5,27.5C 44.5,27.5 45.5,27.5 46.5,27.5C 46.1799,33.6284 44.1799,39.1284 40.5,44C 37.083,44.8756 34.583,43.709 33,40.5C 31.5594,37.845 30.7261,35.0117 30.5,32C 31.9999,24.6705 33.9999,17.5038 36.5,10.5 Z"/></g>
<g><path style="opacity:0.794" fill="#fdfefc" d="M 125.5,10.5 C 127.996,13.4095 127.996,16.5761 125.5,20C 97.4005,30.811 69.9005,42.9776 43,56.5C 41.3333,63.8333 39.6667,71.1667 38,78.5C 37.3333,81.5 37.3333,84.5 38,87.5C 39.1332,89.2112 40.6332,89.7112 42.5,89C 43.2897,86.0039 44.4563,83.1705 46,80.5C 47.8594,81.6455 48.6927,83.3122 48.5,85.5C 48.6226,91.9219 46.1226,96.9219 41,100.5C 35.3544,97.5424 32.5211,92.8758 32.5,86.5C 33.7728,76.9705 35.6062,67.6372 38,58.5C 31.7953,62.5185 25.2953,65.8518 18.5,68.5C 17.3622,62.6701 19.3622,58.5034 24.5,56C 57.3194,38.7896 90.9861,23.6229 125.5,10.5 Z"/></g>
<g><path style="opacity:0.659" fill="#fdfefc" d="M 186.5,11.5 C 187.5,11.5 188.5,11.5 189.5,11.5C 188.326,21.8669 186.326,32.0336 183.5,42C 184.3,45.106 185.967,47.606 188.5,49.5C 190.7,47.7471 191.867,45.4138 192,42.5C 193.011,41.6634 194.178,41.33 195.5,41.5C 195.464,47.8108 193.798,53.6441 190.5,59C 185.177,59.3789 181.677,56.8789 180,51.5C 179.333,48.1667 179.333,44.8333 180,41.5C 182.105,31.4749 184.272,21.4749 186.5,11.5 Z"/></g>
<g><path style="opacity:0.766" fill="#fdfefc" d="M 216.5,11.5 C 220.562,11.7241 223.395,13.7241 225,17.5C 225.989,20.4557 226.822,23.4557 227.5,26.5C 226.351,29.5216 226.351,32.5216 227.5,35.5C 234.247,37.3931 237.081,41.7265 236,48.5C 235.311,49.3567 234.478,50.0233 233.5,50.5C 230.587,48.1251 227.42,46.1251 224,44.5C 219.798,54.3774 213.631,62.8774 205.5,70C 186.112,83.3644 167.446,97.6977 149.5,113C 148.552,113.483 147.552,113.649 146.5,113.5C 148.459,109.019 151.459,105.185 155.5,102C 175.546,86.9605 194.713,70.7938 213,53.5C 215.377,49.912 217.877,46.412 220.5,43C 205.839,38.3531 202.672,29.5197 211,16.5C 213.191,15.1666 215.024,13.5 216.5,11.5 Z M 215.5,22.5 C 214.375,24.1288 213.041,25.6288 211.5,27C 215.143,30.0402 219.143,32.0402 223.5,33C 222.832,29.6795 221.665,26.5128 220,23.5C 218.644,22.6198 217.144,22.2865 215.5,22.5 Z"/></g>
<g><path style="opacity:0.792" fill="#fdfefc" d="M 589.5,12.5 C 590.117,12.6107 590.617,12.944 591,13.5C 591.929,17.2441 591.429,20.7441 589.5,24C 579.343,28.9114 569.343,34.0781 559.5,39.5C 558.914,39.2907 558.414,38.9574 558,38.5C 557.4,34.3939 558.567,30.8939 561.5,28C 569.29,23.6228 577.29,19.6228 585.5,16C 587.093,15.0513 588.426,13.8846 589.5,12.5 Z"/></g>
<g><path style="opacity:0.81" fill="#fdfefc" d="M 452.5,17.5 C 454.484,17.484 455.484,18.484 455.5,20.5C 454.986,23.2106 453.986,25.7106 452.5,28C 428.032,38.8154 404.532,51.3154 382,65.5C 380.706,66.8544 380.54,68.1877 381.5,69.5C 384.91,72.288 388.41,74.9546 392,77.5C 392.172,80.8255 392.005,84.1589 391.5,87.5C 386.332,85.1903 381.498,82.1903 377,78.5C 375.644,74.8983 375.144,71.3983 375.5,68C 376.33,65.1983 377.163,62.365 378,59.5C 386.961,52.5458 396.461,46.3792 406.5,41C 422.082,33.377 437.415,25.5436 452.5,17.5 Z"/></g>
<g><path style="opacity:0.706" fill="#fdfefc" d="M 807.5,29.5 C 819.436,38.0196 826.269,49.6863 828,64.5C 829.078,73.4042 828.078,82.0708 825,90.5C 824.29,91.9733 823.124,92.6399 821.5,92.5C 826.963,71.068 821.796,52.7347 806,37.5C 805.554,34.6673 806.054,32.0006 807.5,29.5 Z"/></g>
<g><path style="opacity:0.764" fill="#fdfefc" d="M 785.5,37.5 C 786.822,37.33 787.989,37.6634 789,38.5C 792.938,46.5352 796.438,54.7018 799.5,63C 798.516,73.459 793.183,76.459 783.5,72C 781.951,70.786 780.785,69.286 780,67.5C 778.611,73.6271 774.944,77.6271 769,79.5C 763.63,78.1581 760.297,74.8247 759,69.5C 758.007,60.8052 757.84,52.1385 758.5,43.5C 761.388,43.2196 762.888,44.5529 763,47.5C 763.333,53.1667 763.667,58.8333 764,64.5C 768.324,69.9322 772.324,69.5988 776,63.5C 776.473,57.4191 775.973,51.4191 774.5,45.5C 774.833,43.5 775.167,41.5 775.5,39.5C 776.799,40.09 777.632,41.09 778,42.5C 779.665,48.1551 781.332,53.8217 783,59.5C 785.97,62.3678 789.137,63.2011 792.5,62C 789.88,57.2608 787.38,52.4275 785,47.5C 784.457,44.1322 784.624,40.7989 785.5,37.5 Z"/></g>
<g><path style="opacity:0.869" fill="#fdfefc" d="M 110.5,42.5 C 117.883,46.2815 124.716,50.9481 131,56.5C 129.687,61.4956 128.021,66.4956 126,71.5C 125.632,72.91 124.799,73.91 123.5,74.5C 117.472,69.9721 111.305,65.6388 105,61.5C 104.333,59.5 104.333,57.5 105,55.5C 106.846,51.1453 108.679,46.8119 110.5,42.5 Z"/></g>
<g><path style="opacity:0.759" fill="#fdfefc" d="M 81.5,49.5 C 87.6952,50.0276 91.3618,53.361 92.5,59.5C 91.4174,66.7185 89.0841,67.2185 85.5,61C 83.9106,59.4574 82.5772,59.4574 81.5,61C 80.9559,63.3997 80.2892,65.733 79.5,68C 80.3662,73.892 80.6996,79.892 80.5,86C 80.0788,89.4072 79.0788,92.5739 77.5,95.5C 76.3279,95.0814 75.3279,94.4147 74.5,93.5C 71.0729,86.9767 66.9063,80.9767 62,75.5C 50.4231,76.8939 46.9231,72.0606 51.5,61C 52.0085,59.8315 52.8419,58.9981 54,58.5C 63.0505,63.8836 70.0505,71.217 75,80.5C 75.8699,79.8921 76.3699,79.0588 76.5,78C 75.7913,70.4767 76.2913,62.9767 78,55.5C 78.926,53.3083 80.0927,51.3083 81.5,49.5 Z"/></g>
<g><path style="opacity:0.753" fill="#fdfefc" d="M 586.5,51.5 C 587.822,51.33 588.989,51.6634 590,52.5C 591.801,58.098 594.134,63.4313 597,68.5C 597.919,73.6559 597.086,78.4892 594.5,83C 588.558,84.9046 584.058,83.0713 581,77.5C 579.607,83.9189 575.774,86.7522 569.5,86C 564.575,83.1542 562.241,78.8208 562.5,73C 562.066,67.5583 562.566,62.0583 564,56.5C 565.147,55.5419 566.147,55.8753 567,57.5C 567.333,62.5 567.667,67.5 568,72.5C 572.221,77.9926 575.721,77.4926 578.5,71C 576.904,65.2783 576.237,59.4449 576.5,53.5C 577.5,53.5 578.5,53.5 579.5,53.5C 580.688,59.2331 582.188,64.8998 584,70.5C 586.588,72.3648 589.422,73.1981 592.5,73C 587.362,66.7473 585.362,59.5806 586.5,51.5 Z"/></g>
<g><path style="opacity:0.811" fill="#fdfefc" d="M 374.5,138.5 C 369.511,141.149 364.511,143.815 359.5,146.5C 358.068,146.267 357.568,145.6 358,144.5C 374.377,130.4 391.21,116.9 408.5,104C 412.543,99.9914 416.543,95.9914 420.5,92C 410.106,89.0438 406.772,82.5438 410.5,72.5C 406.891,56.6229 412.225,52.7896 426.5,61C 432.41,66.2392 437.577,72.0725 442,78.5C 446.014,93.8204 440.514,99.3204 425.5,95C 422.215,99.9537 418.548,104.62 414.5,109C 401.277,119.098 387.944,128.932 374.5,138.5 Z M 417.5,70.5 C 414.743,72.0144 413.576,74.3478 414,77.5C 416.889,79.6345 420.056,81.3011 423.5,82.5C 424.84,81.3122 425.507,79.8122 425.5,78C 425.207,72.8718 422.541,70.3718 417.5,70.5 Z M 431.5,77.5 C 427.634,84.6391 429.634,86.9724 437.5,84.5C 435.822,81.8273 433.822,79.494 431.5,77.5 Z"/></g>
<g><path style="opacity:0.047" fill="#fdfefc" d="M 501.5,60.5 C 503.337,60.6395 503.67,61.3061 502.5,62.5C 501.702,62.0431 501.369,61.3764 501.5,60.5 Z"/></g>
<g><path style="opacity:0.755" fill="#fdfefc" d="M 898.5,60.5 C 900.173,61.343 901.34,62.6763 902,64.5C 902.789,70.1187 904.456,75.452 907,80.5C 907.81,85.2574 907.476,89.9241 906,94.5C 902.008,97.7959 897.841,97.6293 893.5,94C 891.951,92.786 890.785,91.286 890,89.5C 887.73,97.2166 882.897,99.3832 875.5,96C 872.631,93.0944 871.298,89.5944 871.5,85.5C 871.261,79.2 871.761,72.8667 873,66.5C 873.414,66.0426 873.914,65.7093 874.5,65.5C 877.538,70.1375 878.205,75.1375 876.5,80.5C 878.622,88.9072 882.122,89.5739 887,82.5C 886.84,78.1775 886.34,73.8442 885.5,69.5C 885.442,66.9429 886.109,64.6096 887.5,62.5C 888.799,63.09 889.632,64.09 890,65.5C 890.492,72.4786 892.659,78.8119 896.5,84.5C 898.456,85.5481 900.456,86.0481 902.5,86C 897.202,78.0116 895.869,69.5116 898.5,60.5 Z"/></g>
<g><path style="opacity:0.793" fill="#fdfefc" d="M 724.5,61.5 C 727.794,61.259 730.794,62.0924 733.5,64C 742.135,70.1304 747.802,78.2971 750.5,88.5C 750.132,91.638 749.299,94.638 748,97.5C 746.818,99.3569 745.151,100.357 743,100.5C 739.596,99.6983 736.263,98.6983 733,97.5C 719.304,111.851 703.804,124.017 686.5,134C 683.18,137.178 679.513,139.678 675.5,141.5C 675.351,140.448 675.517,139.448 676,138.5C 689.007,125.485 703.174,113.985 718.5,104C 721.5,101 724.5,98 727.5,95C 722.019,93.0283 719.019,89.195 718.5,83.5C 719.527,77.8633 720.361,72.1967 721,66.5C 721.997,64.6769 723.164,63.0103 724.5,61.5 Z M 725.5,74.5 C 727.467,74.2606 729.301,74.5939 731,75.5C 735.239,85.6 732.905,87.6 724,81.5C 723.391,78.9348 723.891,76.6015 725.5,74.5 Z M 737.5,79.5 C 741,81.8441 743.667,85.0108 745.5,89C 741.786,89.7068 738.453,88.8735 735.5,86.5C 736.577,84.2706 737.244,81.9372 737.5,79.5 Z"/></g>
<g><path style="opacity:0.766" fill="#fdfefc" d="M 671.5,62.5 C 677.175,62.8252 680.842,65.8252 682.5,71.5C 681.949,74.0561 680.949,76.3894 679.5,78.5C 677.159,76.4545 674.826,74.4545 672.5,72.5C 671.808,73.0253 671.308,73.6919 671,74.5C 669.742,84.4268 669.076,94.4268 669,104.5C 668.57,108.494 667.07,109.16 664.5,106.5C 661.48,99.6268 657.814,93.1268 653.5,87C 648.968,86.951 644.634,86.1177 640.5,84.5C 639.39,79.8887 639.223,75.222 640,70.5C 643.953,69.0409 647.453,69.8742 650.5,73C 657.271,79.3691 662.438,86.8691 666,95.5C 666.333,87.8333 666.667,80.1667 667,72.5C 667.703,68.7642 669.203,65.4309 671.5,62.5 Z"/></g>
<g><path style="opacity:0.759" fill="#fdfefc" d="M 361.5,70.5 C 368.616,72.3769 371.449,77.0436 370,84.5C 369.632,85.91 368.799,86.91 367.5,87.5C 365.96,85.6132 364.293,83.7799 362.5,82C 361.551,81.3828 360.718,81.5494 360,82.5C 358.171,93.088 356.837,103.755 356,114.5C 355.047,116.592 353.714,116.925 352,115.5C 349.007,108.845 345.507,102.512 341.5,96.5C 337.178,95.3958 333.011,94.0624 329,92.5C 328.333,88.5 328.333,84.5 329,80.5C 331.541,76.664 334.375,76.4974 337.5,80C 344.269,86.7701 349.435,94.6034 353,103.5C 354.207,94.5247 355.541,85.858 357,77.5C 357.904,74.7666 359.404,72.4333 361.5,70.5 Z"/></g>
<g><path style="opacity:0.768" fill="#fdfefc" d="M 232.5,71.5 C 239.703,71.0307 244.037,74.364 245.5,81.5C 244.533,83.7617 243.866,86.095 243.5,88.5C 240.95,88.4392 239.45,87.1059 239,84.5C 236.809,81.5178 234.476,81.1845 232,83.5C 230.74,93.7607 230.073,104.094 230,114.5C 229.632,115.91 228.799,116.91 227.5,117.5C 223.456,109.907 218.789,102.74 213.5,96C 208.868,95.2033 204.368,94.0366 200,92.5C 199.062,87.4733 199.562,82.64 201.5,78C 204.702,78.0863 207.702,79.0863 210.5,81C 216.819,86.9826 221.986,93.816 226,101.5C 226.269,94.458 226.936,87.458 228,80.5C 228.986,77.1943 230.486,74.1943 232.5,71.5 Z"/></g>
<g><path style="opacity:0.676" fill="#fdfefc" d="M 525.5,74.5 C 533.02,80.1811 537.52,87.8478 539,97.5C 539.667,105.167 539.667,112.833 539,120.5C 537.653,127.552 536.153,134.552 534.5,141.5C 533.5,141.5 532.5,141.5 531.5,141.5C 535.159,126.522 535.326,111.522 532,96.5C 530.416,92.3253 528.082,88.6587 525,85.5C 524.55,81.8125 524.717,78.1458 525.5,74.5 Z"/></g>
<g><path style="opacity:0.712" fill="#fdfefc" d="M 484.5,77.5 C 488.421,80.5914 491.921,84.2581 495,88.5C 502.188,106.444 502.188,124.444 495,142.5C 494.29,143.973 493.124,144.64 491.5,144.5C 496.841,128.756 496.675,113.089 491,97.5C 488.72,93.5533 486.053,89.8866 483,86.5C 482.207,83.2587 482.707,80.2587 484.5,77.5 Z"/></g>
<g><path style="opacity:0.876" fill="#fdfefc" d="M 574.5,91.5 C 582.594,95.2428 589.594,100.576 595.5,107.5C 593.648,112.894 591.314,118.06 588.5,123C 587.5,123.667 586.5,123.667 585.5,123C 580.291,118.122 574.791,113.622 569,109.5C 568.333,107.5 568.333,105.5 569,103.5C 571.097,99.5852 572.931,95.5852 574.5,91.5 Z"/></g>
<g><path style="opacity:0.885" fill="#fdfefc" d="M 811.5,96.5 C 814.808,95.9738 816.974,97.3072 818,100.5C 820.833,106.17 824.166,111.503 828,116.5C 829.759,120.009 830.926,123.675 831.5,127.5C 828.625,126.871 825.958,126.038 823.5,125C 827.535,136.771 831.368,148.604 835,160.5C 836.89,174.79 832.723,186.956 822.5,197C 810.234,202.589 799.734,200.089 791,189.5C 787.187,183.219 784.52,176.553 783,169.5C 780.193,180.622 774.693,190.122 766.5,198C 753.169,206.374 741.002,204.874 730,193.5C 725.211,186.966 722.711,179.632 722.5,171.5C 724.122,161.44 725.622,151.44 727,141.5C 724.752,144.328 722.752,147.328 721,150.5C 716.653,165.209 711.32,179.542 705,193.5C 699.984,202.762 692.817,204.928 683.5,200C 680.667,197.167 677.833,194.333 675,191.5C 673.333,187.833 671.667,184.167 670,180.5C 663.788,189.712 655.955,197.212 646.5,203C 631.906,213.261 616.573,222.261 600.5,230C 593.087,233.209 585.421,235.542 577.5,237C 559.66,238.272 541.994,240.772 524.5,244.5C 520.338,244.351 519.672,242.851 522.5,240C 543.746,232.14 565.079,224.473 586.5,217C 616.483,204.935 643.649,188.435 668,167.5C 668.342,165.182 667.842,163.015 666.5,161C 658.505,160.332 650.505,159.665 642.5,159C 632.334,155.842 628.5,149.009 631,138.5C 633.254,126.959 639.588,118.626 650,113.5C 658.064,115.53 664.064,120.197 668,127.5C 672.126,135.046 674.96,143.046 676.5,151.5C 676.155,158.479 675.655,165.813 675,173.5C 677.327,182.855 683.16,187.021 692.5,186C 696.092,183.079 698.925,179.579 701,175.5C 707.082,159.588 713.749,143.921 721,128.5C 733.632,111.088 739.132,113.255 737.5,135C 733.322,146.558 732.156,158.392 734,170.5C 741.738,184.966 752.572,187.799 766.5,179C 773.958,173.083 778.291,165.417 779.5,156C 778.04,143.242 776.04,130.575 773.5,118C 774.432,112.297 776.098,106.797 778.5,101.5C 779.723,100.386 781.056,100.219 782.5,101C 787.126,120.253 790.626,139.753 793,159.5C 794.814,168.967 799.981,175.801 808.5,180C 812.926,180.791 817.259,180.457 821.5,179C 825.007,177.139 826.173,174.305 825,170.5C 818.731,151.035 812.898,131.535 807.5,112C 808.745,106.773 810.078,101.606 811.5,96.5 Z M 645.5,133.5 C 650.419,133.795 654.419,135.962 657.5,140C 652.382,140.888 647.382,140.555 642.5,139C 641.549,138.282 641.383,137.449 642,136.5C 643.145,135.364 644.312,134.364 645.5,133.5 Z"/></g>
<g><path style="opacity:0.878" fill="#fdfefc" d="M 879.5,107.5 C 886.046,111.199 892.212,115.533 898,120.5C 897.618,126.638 895.451,132.138 891.5,137C 890.5,137.667 889.5,137.667 888.5,137C 883.422,133.045 878.256,129.211 873,125.5C 872.333,123.5 872.333,121.5 873,119.5C 875.023,115.34 877.189,111.34 879.5,107.5 Z"/></g>
<g><path style="opacity:0.69" fill="#fdfefc" d="M 753.5,118.5 C 754.5,118.5 755.5,118.5 756.5,118.5C 756.434,125.999 755.267,133.332 753,140.5C 752.333,144.167 752.333,147.833 753,151.5C 754.263,153.797 756.097,154.63 758.5,154C 759.554,151.618 760.221,149.118 760.5,146.5C 761.5,146.5 762.5,146.5 763.5,146.5C 764.59,153.168 762.924,159.001 758.5,164C 751.344,164.123 747.677,160.457 747.5,153C 748.786,141.36 750.786,129.86 753.5,118.5 Z"/></g>
<g><path style="opacity:0.861" fill="#fdfefc" d="M 436.5,124.5 C 444.324,124.684 451.991,125.851 459.5,128C 462.848,129.977 464.348,132.81 464,136.5C 454.648,155.26 439.481,164.427 418.5,164C 417.273,162.413 417.606,161.079 419.5,160C 429.779,155.527 439.779,150.527 449.5,145C 439.632,140.542 429.965,140.709 420.5,145.5C 418.717,144.652 418.217,143.319 419,141.5C 421.888,136.224 425.388,131.391 429.5,127C 431.927,126.098 434.26,125.264 436.5,124.5 Z"/></g>
<g><path style="opacity:0.77" fill="#fdfefc" d="M 59.5,133.5 C 67.7143,133.899 71.2143,138.232 70,146.5C 69.5495,149.106 68.0495,150.439 65.5,150.5C 65.2562,147.737 63.9229,145.571 61.5,144C 60.365,143.251 59.365,143.417 58.5,144.5C 56.801,153.4 55.6343,162.4 55,171.5C 54.6397,173.421 53.8064,175.088 52.5,176.5C 49.053,168.945 45.053,161.612 40.5,154.5C 36.0714,152.972 31.9048,150.972 28,148.5C 27.5969,134.031 32.2636,132.031 42,142.5C 45.8548,148.21 49.1881,154.21 52,160.5C 52.9273,153.82 53.9273,147.154 55,140.5C 56.0121,137.798 57.5121,135.465 59.5,133.5 Z"/></g>
<g><path style="opacity:0.765" fill="#fdfefc" d="M 374.5,138.5 C 379.735,140.899 383.902,144.566 387,149.5C 389.936,154.373 392.603,159.373 395,164.5C 395.333,158.833 395.667,153.167 396,147.5C 396.397,141.694 399.064,137.361 404,134.5C 411.792,137.803 413.626,143.303 409.5,151C 409.167,151.167 408.833,151.333 408.5,151.5C 407.477,148.477 405.477,146.477 402.5,145.5C 401.353,145.818 400.519,146.484 400,147.5C 399.786,157.204 399.12,166.87 398,176.5C 396.921,178.394 395.587,178.727 394,177.5C 390.545,170.753 386.711,164.253 382.5,158C 378.436,157.29 374.603,156.123 371,154.5C 370.423,148.744 371.59,143.411 374.5,138.5 Z"/></g>
<g><path style="opacity:0.686" fill="#fdfefc" d="M 266.5,172.5 C 267.5,172.5 268.5,172.5 269.5,172.5C 268.713,177.696 267.213,182.696 265,187.5C 264.044,191.572 264.544,195.405 266.5,199C 267.5,199.667 268.5,199.667 269.5,199C 271.209,197.084 272.543,194.918 273.5,192.5C 274.325,191.614 275.325,191.281 276.5,191.5C 276.05,198.349 273.384,204.183 268.5,209C 265.211,209.746 262.711,208.58 261,205.5C 259.859,202.938 259.026,200.272 258.5,197.5C 260.385,188.848 263.052,180.514 266.5,172.5 Z"/></g>
<g><path style="opacity:0.698" fill="#fdfefc" d="M 148.5,175.5 C 149.478,175.811 150.145,176.478 150.5,177.5C 148.257,183.401 145.924,189.235 143.5,195C 146.921,202.378 149.921,202.211 152.5,194.5C 153.325,193.614 154.325,193.281 155.5,193.5C 155.396,199.986 153.063,205.486 148.5,210C 144.835,210.387 142.002,208.887 140,205.5C 139.634,194.573 142.468,184.573 148.5,175.5 Z"/></g>
<g><path style="opacity:0.842" fill="#fdfefc" d="M 35.5,183.5 C 44.3402,183.463 53.0069,184.63 61.5,187C 65.7703,187.912 67.6037,190.412 67,194.5C 62.5188,200.979 57.3522,206.812 51.5,212C 45.0042,214.501 38.3375,216.501 31.5,218C 29.1667,218.667 26.8333,218.667 24.5,218C 24.9981,216.842 25.8315,216.009 27,215.5C 35.7861,212.241 44.2861,208.407 52.5,204C 45.7685,202.237 38.9352,201.07 32,200.5C 28.9847,201.124 26.1514,202.124 23.5,203.5C 22.8333,203.167 22.1667,202.833 21.5,202.5C 24.8043,194.905 29.471,188.571 35.5,183.5 Z"/></g>
<g><path style="opacity:0.787" fill="#fdfefc" d="M 909.5,191.5 C 915.665,190.829 918.165,193.496 917,199.5C 915.497,203.859 913.33,204.359 910.5,201C 909.167,200.333 907.833,200.333 906.5,201C 910.817,206.378 915.65,206.878 921,202.5C 922.861,205.924 922.361,209.091 919.5,212C 912.982,214.421 907.315,218.088 902.5,223C 901.552,223.483 900.552,223.649 899.5,223.5C 899.681,219.305 901.347,215.805 904.5,213C 898.373,208.095 897.873,202.595 903,196.5C 904.965,194.45 907.132,192.783 909.5,191.5 Z"/></g>
<g><path style="opacity:0.807" fill="#fdfefc" d="M 499.5,196.5 C 504.477,196.131 507.477,198.465 508.5,203.5C 507.557,206.4 505.89,208.733 503.5,210.5C 501.667,208.833 499.833,207.167 498,205.5C 496.795,206.071 495.628,206.738 494.5,207.5C 499.697,213.781 506.031,215.114 513.5,211.5C 515.384,212.693 515.884,214.359 515,216.5C 514.208,218.587 513.041,220.421 511.5,222C 502.845,223.765 495.178,227.432 488.5,233C 487.552,233.483 486.552,233.649 485.5,233.5C 485.744,227.857 488.411,223.691 493.5,221C 483.661,215.468 482.994,208.968 491.5,201.5C 493.928,199.295 496.595,197.628 499.5,196.5 Z"/></g>
<g><path style="opacity:0.874" fill="#fdfefc" d="M 215.5,197.5 C 223.105,200.597 229.438,205.43 234.5,212C 232.457,217.931 229.29,223.098 225,227.5C 218.825,222.984 212.992,218.151 207.5,213C 209.787,207.592 212.454,202.425 215.5,197.5 Z"/></g>
<g><path style="opacity:0.816" fill="#fdfefc" d="M 193.5,199.5 C 194.5,199.5 195.5,199.5 196.5,199.5C 196.794,203.115 195.794,206.282 193.5,209C 175.936,215.782 158.602,223.115 141.5,231C 131.018,235.738 121.018,241.238 111.5,247.5C 110.345,244.554 110.179,241.554 111,238.5C 119.423,232.703 128.256,227.536 137.5,223C 156.141,214.839 174.808,207.005 193.5,199.5 Z"/></g>
<g><path style="opacity:0.805" fill="#fdfefc" d="M 660.5,200.5 C 666.134,199.468 669.134,201.802 669.5,207.5C 669.398,210.37 668.232,212.703 666,214.5C 663.925,211.039 661.092,209.706 657.5,210.5C 660.001,213.751 663.334,215.417 667.5,215.5C 670.176,215.163 672.843,214.83 675.5,214.5C 675.953,218.426 674.62,221.592 671.5,224C 663.841,225.712 657.175,229.212 651.5,234.5C 649.431,229.515 650.764,225.682 655.5,223C 647.9,217.343 647.566,211.177 654.5,204.5C 656.29,202.684 658.29,201.351 660.5,200.5 Z"/></g>
<g><path style="opacity:0.69" fill="#fdfefc" d="M 780.5,205.5 C 781.5,205.5 782.5,205.5 783.5,205.5C 781.573,212.948 779.24,220.282 776.5,227.5C 776.712,230.927 778.212,233.594 781,235.5C 783.741,233.933 784.908,231.599 784.5,228.5C 786.948,228.085 788.281,229.085 788.5,231.5C 787.433,236.134 785.433,240.301 782.5,244C 776.641,246.199 773.141,244.032 772,237.5C 771.333,234.167 771.333,230.833 772,227.5C 774.569,220.034 777.402,212.701 780.5,205.5 Z"/></g>
<g><path style="opacity:0.764" fill="#fdfefc" d="M 837.5,205.5 C 844.049,208.659 846.216,213.659 844,220.5C 842.981,221.687 841.814,222.687 840.5,223.5C 839.547,221.092 838.213,218.925 836.5,217C 835.551,216.383 834.718,216.549 834,217.5C 832.771,226.637 831.438,235.97 830,245.5C 829.632,246.91 828.799,247.91 827.5,248.5C 824.204,241.909 820.871,235.242 817.5,228.5C 813.194,227.055 809.027,225.388 805,223.5C 804.333,219.833 804.333,216.167 805,212.5C 807.48,208.94 810.314,208.773 813.5,212C 819.995,217.5 824.495,224.333 827,232.5C 828.072,225.809 829.405,219.143 831,212.5C 832.045,208.96 834.212,206.626 837.5,205.5 Z"/></g>
<g><path style="opacity:0.817" fill="#fdfefc" d="M 754.5,209.5 C 756.635,209.147 757.968,209.98 758.5,212C 757.09,214.818 755.423,217.485 753.5,220C 737.453,225.015 721.787,231.015 706.5,238C 699.329,241.416 692.662,245.582 686.5,250.5C 684.478,243.407 686.812,238.241 693.5,235C 713.221,224.822 733.554,216.322 754.5,209.5 Z"/></g>
<g><path style="opacity:0.676" fill="#fdfefc" d="M 170.5,219.5 C 171.5,219.5 172.5,219.5 173.5,219.5C 172.021,223.802 170.521,228.135 169,232.5C 168.333,235.5 168.333,238.5 169,241.5C 170.388,242.554 171.888,242.72 173.5,242C 174.542,240.082 175.708,238.249 177,236.5C 179.257,243.776 177.09,249.443 170.5,253.5C 166.058,251.89 163.724,248.724 163.5,244C 164.211,239.481 165.044,234.981 166,230.5C 168.066,227.039 169.566,223.373 170.5,219.5 Z"/></g>
<g><path style="opacity:0.794" fill="#fdfefc" d="M 921.5,219.5 C 922.833,219.5 924.167,219.5 925.5,219.5C 926.029,223.192 925.029,226.358 922.5,229C 915.041,232.563 907.707,236.397 900.5,240.5C 899.914,240.291 899.414,239.957 899,239.5C 898.333,237.167 898.333,234.833 899,232.5C 906.172,227.472 913.672,223.138 921.5,219.5 Z"/></g>
<g><path style="opacity:0.82" fill="#fdfefc" d="M 384.5,221.5 C 385.5,221.5 386.5,221.5 387.5,221.5C 387.784,224.777 387.451,227.943 386.5,231C 375.301,236.875 364.635,243.542 354.5,251C 353.552,251.483 352.552,251.649 351.5,251.5C 351.18,248.102 351.513,244.768 352.5,241.5C 362.895,234.308 373.561,227.641 384.5,221.5 Z"/></g>
<g><path style="opacity:0.877" fill="#fdfefc" d="M 440.5,257.5 C 439.833,257.5 439.167,257.5 438.5,257.5C 434.503,252.67 430.003,248.336 425,244.5C 422.488,248.861 419.988,253.194 417.5,257.5C 416.167,257.5 414.833,257.5 413.5,257.5C 408.907,253.083 404.074,248.75 399,244.5C 400.11,237.952 403.11,232.285 408,227.5C 413.277,231.106 418.277,235.106 423,239.5C 425.944,235.048 429.111,230.715 432.5,226.5C 437.909,230.954 443.409,235.287 449,239.5C 449.667,240.833 449.667,242.167 449,243.5C 445.893,248.056 443.06,252.723 440.5,257.5 Z"/></g>
<g><path style="opacity:0.807" fill="#fdfefc" d="M 510.5,226.5 C 511.822,226.33 512.989,226.663 514,227.5C 514.978,230.669 514.478,233.503 512.5,236C 501.353,241.071 490.686,246.905 480.5,253.5C 479.067,249.804 479.4,246.304 481.5,243C 490.872,236.981 500.539,231.481 510.5,226.5 Z"/></g>
<g><path style="opacity:0.776" fill="#fdfefc" d="M 671.5,229.5 C 672.5,229.5 673.5,229.5 674.5,229.5C 674.6,232.667 673.933,235.667 672.5,238.5C 664.23,241.968 656.23,245.968 648.5,250.5C 647.013,246.759 647.68,243.426 650.5,240.5C 657.151,236.009 664.151,232.343 671.5,229.5 Z"/></g>
</svg>
